#!OML:ASF Y:\EmotionMaleHayes\Project 1\Capture day 1\Session 1\Male1.ASF
:FULLY-SPECIFIED
:DEGREES
593
root 13.9968 17.0069 0.0915301 480.815 83.5395 483.126
lowerback 4.75229 -1.32358 -7.84162
upperback -0.292145 -2.18776 0.54973
thorax -2.66006 -0.972563 5.12343
lowerneck -24.736 3.23095 3.98061
upperneck 15.4843 3.39967 -1.81981
head 8.98763 1.62578 -0.772622
rclavicle 8.93289e-015 4.17448e-014
rhumerus -45.9934 4.78867 -82.4665
rradius 33.5619
rwrist 0.445709
rhand -8.77223 -30.9967
rfingers 7.12502
rthumb 17.1657 -60.2585
lclavicle 8.93289e-015 4.17448e-014
lhumerus -42.644 -12.3541 96.5862
lradius 24.6697
lwrist -12.2255
lhand -10.1714 -22.5115
lfingers 7.12502
lthumb 15.8186 6.8622
rfemur -8.18056 -4.83903 14.2525
rtibia 13.2004
rfoot -6.73399 1.34131
rtoes 24.5168
lfemur 20.1757 0.304075 -24.4698
ltibia 35.7098
lfoot 9.47393 1.37858
ltoes 7.83302
594
root 14.1424 17.017 0.106172 485.499 84.0681 488.085
lowerback 5.04829 -1.23234 -6.98566
upperback -0.331264 -2.04154 0.627341
thorax -2.91353 -0.901389 4.7243
lowerneck -24.703 3.15347 3.91107
upperneck 15.8898 3.28022 -1.60786
head 9.11506 1.59164 -0.704624
rclavicle -4.21175e-015 -3.57812e-015
rhumerus -45.7474 4.73609 -82.6746
rradius 33.8969
rwrist -0.0852798
rhand -8.96224 -31.1924
rfingers 7.12502
rthumb 16.9828 -60.47
lclavicle -4.21175e-015 -3.57812e-015
lhumerus -42.9937 -11.7773 95.968
lradius 24.0761
lwrist -13.5046
lhand -9.43944 -22.6838
lfingers 7.12502
lthumb 16.5234 6.63265
rfemur -6.89635 -4.77131 15.146
rtibia 12.4323
rfoot -6.81321 1.39382
rtoes 24.4281
lfemur 19.2809 0.56278 -23.1908
ltibia 37.7975
lfoot 10.7615 2.04096
ltoes 8.80705
595
root 14.2841 17.025 0.123334 492.287 84.7606 495.172
lowerback 5.40975 -1.11299 -5.92827
upperback -0.338857 -1.83852 0.787006
thorax -3.17708 -0.807264 4.29269
lowerneck -24.7143 2.83363 3.73449
upperneck 16.0257 2.89849 -1.56708
head 9.15019 1.40761 -0.718643
rclavicle 2.3966e-014 -5.56597e-015
rhumerus -45.4564 4.59501 -82.7856
rradius 34.2485
rwrist -0.428353
rhand -9.02469 -31.3704
rfingers 7.12502
rthumb 16.9227 -60.6532
lclavicle 2.3966e-014 -5.56597e-015
lhumerus -43.3099 -11.482 95.5102
lradius 23.5679
lwrist -14.3603
lhand -8.85264 -22.7429
lfingers 7.12502
lthumb 17.0883 6.52559
rfemur -6.3541 -4.40418 16.4434
rtibia 13.0203
rfoot -7.67598 1.26566
rtoes 24.2604
lfemur 18.4081 0.941244 -21.5762
ltibia 39.8955
lfoot 12.0309 2.66853
ltoes 9.1965
596
root 14.4267 17.0326 0.139025 500.393 85.4185 503.618
lowerback 5.72784 -1.01009 -4.91598
upperback -0.292421 -1.64494 0.973326
thorax -3.35122 -0.722454 3.90974
lowerneck -24.7766 2.59685 3.88339
upperneck 16.2204 2.57976 -1.82387
head 9.2261 1.23874 -0.878854
rclavicle -2.29845e-015 6.36111e-015
rhumerus -45.1329 4.42364 -82.8466
rradius 34.6497
rwrist -0.474935
rhand -9.20521 -31.4134
rfingers 7.12502
rthumb 16.7489 -60.7109
lclavicle -2.29845e-015 6.36111e-015
lhumerus -43.6316 -11.1967 95.0827
lradius 23.126
lwrist -15.006
lhand -8.52376 -22.8564
lfingers 7.12502
lthumb 17.4048 6.38434
rfemur -5.11056 -4.46794 17.6395
rtibia 12.3517
rfoot -7.85114 1.51773
rtoes 25.0604
lfemur 17.6079 1.48765 -19.9202
ltibia 41.8519
lfoot 13.8806 3.07402
ltoes 9.18993
597
root 14.5668 17.0388 0.149333 509.619 85.8555 513.098
lowerback 5.95818 -0.940283 -4.00518
upperback -0.274932 -1.49242 1.12811
thorax -3.49579 -0.657648 3.55051
lowerneck -24.719 2.41377 4.04833
upperneck 16.3426 2.34147 -2.11718
head 9.25819 1.10473 -1.04391
rclavicle 2.03506e-014 -1.59028e-015
rhumerus -44.7285 4.43114 -82.9455
rradius 34.9173
rwrist -0.574451
rhand -9.49259 -31.2237
rfingers 7.12502
rthumb 16.4722 -60.5444
lclavicle 2.03506e-014 -1.59028e-015
lhumerus -43.9356 -10.7901 94.5923
lradius 22.7543
lwrist -15.6848
lhand -8.18817 -23.0116
lfingers 7.12502
lthumb 17.7278 6.20033
rfemur -4.06998 -4.59369 18.6514
rtibia 11.8939
rfoot -8.11977 1.77873
rtoes 26.128
lfemur 16.6351 1.97484 -18.5287
ltibia 43.6416
lfoot 12.9113 2.90964
ltoes -1.71969
598
root 14.7023 17.0435 0.154686 519.173 86.0039 522.83
lowerback 6.0716 -0.860268 -3.17154
upperback -0.244038 -1.32452 1.23321
thorax -3.5578 -0.586957 3.17748
lowerneck -24.4939 2.1643 3.80846
upperneck 16.2097 2.07038 -2.01474
head 9.16061 0.975884 -1.01097
rclavicle -5.98839e-015 5.56597e-015
rhumerus -44.2086 4.43652 -82.9917
rradius 35.1251
rwrist -0.906764
rhand -9.65149 -31.1283
rfingers 7.12502
rthumb 16.3192 -60.4616
lclavicle -5.98839e-015 5.56597e-015
lhumerus -44.1027 -10.4846 94.1251
lradius 22.3843
lwrist -16.4253
lhand -7.4495 -22.8937
lfingers 7.12502
lthumb 18.4385 6.25243
rfemur -3.20176 -5.0865 19.4235
rtibia 11.7023
rfoot -8.5663 2.23566
rtoes 25.1337
lfemur 15.4888 2.36622 -17.4155
ltibia 45.448
lfoot 11.9787 3.00543
ltoes -8.66153
599
root 14.8367 17.0479 0.161411 526.171 85.9576 530.067
lowerback 6.30444 -0.762811 -2.51871
upperback -0.24432 -1.15169 1.22924
thorax -3.71459 -0.5098 2.79512
lowerneck -24.1668 1.88462 3.30141
upperneck 16.0362 1.74494 -1.41688
head 9.02396 0.862529 -0.770753
rclavicle 4.32357e-015 -1.31198e-014
rhumerus -43.7703 4.43154 -83.1605
rradius 35.2867
rwrist -1.3169
rhand -9.88754 -31.2925
rfingers 7.12502
rthumb 16.0919 -60.6444
lclavicle 4.32357e-015 -1.31198e-014
lhumerus -44.3385 -10.2153 93.5415
lradius 22.1457
lwrist -17.0755
lhand -7.89558 -23.4571
lfingers 7.12502
lthumb 18.0093 5.72912
rfemur -2.30549 -5.60506 19.9296
rtibia 11.5325
rfoot -8.86542 2.60708
rtoes 24.0853
lfemur 14.4715 2.67799 -16.5614
ltibia 47.4525
lfoot 10.935 3.79834
ltoes -5.81631
600
root 14.9702 17.0512 0.172212 534.163 85.9686 538.35
lowerback 6.55649 -0.64466 -1.87269
upperback -0.222152 -0.945269 1.2887
thorax -3.85591 -0.416413 2.47806
lowerneck -24.1517 1.70896 2.94453
upperneck 16.1929 1.53391 -0.974919
head 9.06403 0.793746 -0.590772
rclavicle -9.52924e-015 -7.95139e-016
rhumerus -43.3279 4.42027 -83.3149
rradius 35.3934
rwrist -1.42928
rhand -10.1843 -31.4019
rfingers 7.12502
rthumb 15.8062 -60.7766
lclavicle -9.52924e-015 -7.95139e-016
lhumerus -44.5505 -9.82636 92.891
lradius 22.0332
lwrist -17.5765
lhand -7.66112 -23.5703
lfingers 7.12502
lthumb 18.2349 5.59503
rfemur -1.36037 -5.73378 20.6368
rtibia 11.2701
rfoot -9.14758 2.72358
rtoes 23.5992
lfemur 13.5409 3.00833 -15.5389
ltibia 49.5163
lfoot 8.06336 3.83865
ltoes -1.99779
601
root 15.0973 17.0509 0.184024 542.982 85.9317 547.39
lowerback 6.67567 -0.530584 -1.34578
upperback -0.129295 -0.741214 1.50646
thorax -3.84165 -0.322703 2.38808
lowerneck -24.026 1.40883 2.64201
upperneck 16.3512 1.23558 -0.984394
head 9.08955 0.635056 -0.589187
rclavicle -7.77745e-015 1.07344e-014
rhumerus -42.6609 4.46497 -83.1987
rradius 35.5086
rwrist -1.30496
rhand -10.3221 -31.3103
rfingers 7.12502
rthumb 15.6734 -60.6955
lclavicle -7.77745e-015 1.07344e-014
lhumerus -44.5145 -9.48607 92.5128
lradius 21.8244
lwrist -17.7141
lhand -7.33035 -23.324
lfingers 7.12502
lthumb 18.5531 5.81129
rfemur -0.518715 -5.64487 21.4488
rtibia 11.0269
rfoot -9.46946 2.70861
rtoes 23.9259
lfemur 12.363 3.40671 -14.4572
ltibia 51.4326
lfoot 6.1586 3.44715
ltoes 1.84573
602
root 15.2188 17.0492 0.196353 549.727 85.7803 554.311
lowerback 6.84847 -0.433979 -0.903158
upperback -0.0550691 -0.568019 1.67503
thorax -3.87316 -0.24222 2.29803
lowerneck -23.8069 1.18159 2.66639
upperneck 16.1779 1.0104 -1.38787
head 8.98986 0.484211 -0.76589
rclavicle 5.61567e-015 -9.14409e-015
rhumerus -41.9957 4.73684 -83.1871
rradius 35.6713
rwrist -1.41242
rhand -10.5244 -31.231
rfingers 7.12502
rthumb 15.4786 -60.6313
lclavicle 5.61567e-015 -9.14409e-015
lhumerus -44.458 -9.31417 92.24
lradius 21.618
lwrist -17.5981
lhand -7.54047 -23.0419
lfingers 7.12502
lthumb 18.3509 6.11251
rfemur 0.286074 -5.59331 22.1008
rtibia 10.5952
rfoot -9.60044 2.60934
rtoes 24.0356
lfemur 11.0319 3.77955 -13.5633
ltibia 53.1179
lfoot 5.37378 3.08859
ltoes 5.21146
603
root 15.3412 17.0509 0.207153 554.617 85.6894 559.409
lowerback 6.99483 -0.259153 -0.453447
upperback 0.00756445 -0.296451 1.6847
thorax -3.90511 -0.115062 2.02822
lowerneck -23.3742 0.94133 2.73718
upperneck 15.7913 0.707801 -1.57071
head 8.777 0.32592 -0.882809
rclavicle 1.2424e-017 -1.59028e-015
rhumerus -41.4743 4.69408 -83.2667
rradius 35.9272
rwrist -1.41902
rhand -10.603 -31.3379
rfingers 7.12502
rthumb 15.4029 -60.7441
lclavicle 1.2424e-017 -1.59028e-015
lhumerus -44.5861 -9.19395 91.7441
lradius 21.6954
lwrist -17.7879
lhand -7.90102 -23.1238
lfingers 7.12502
lthumb 18.0041 6.06285
rfemur 1.07619 -5.66439 22.5973
rtibia 10.3009
rfoot -9.75941 2.61151
rtoes 23.1032
lfemur 9.80684 4.24204 -12.8092
ltibia 54.5818
lfoot 4.9003 2.86598
ltoes 6.55291
604
root 15.4674 17.0543 0.214154 554.075 85.7743 559.062
lowerback 7.10137 0.00644415 -0.375469
upperback 0.0253581 0.0564974 1.52588
thorax -3.95965 0.0568973 1.78383
lowerneck -22.9851 0.642182 2.65489
upperneck 15.6908 0.290417 -1.34325
head 8.66638 0.151776 -0.849111
rclavicle -1.4474e-015 1.07344e-014
rhumerus -40.9646 4.30279 -83.2322
rradius 36.0902
rwrist -1.21537
rhand -10.5061 -31.4638
rfingers 7.12502
rthumb 15.4962 -60.8628
lclavicle -1.4474e-015 1.07344e-014
lhumerus -44.7902 -9.05937 91.1328
lradius 21.7909
lwrist -17.9945
lhand -7.90995 -23.2011
lfingers 7.12502
lthumb 17.9955 5.98641
rfemur 1.83973 -5.78538 22.5376
rtibia 10.3982
rfoot -10.2636 2.85512
rtoes 22.4271
lfemur 8.68133 4.67152 -12.69
ltibia 55.8531
lfoot 4.06732 3.06169
ltoes 7.86913
605
root 15.5898 17.0568 0.225259 555.71 85.8317 560.866
lowerback 7.2637 0.215531 -0.200929
upperback 0.0241183 0.347106 1.44623
thorax -4.06038 0.19736 1.57263
lowerneck -22.8533 0.319063 2.37047
upperneck 15.8917 -0.130195 -0.971672
head 8.70462 -0.0194849 -0.734533
rclavicle -3.6154e-015 1.2921e-014
rhumerus -40.3406 4.37035 -83.3392
rradius 36.1046
rwrist -1.21501
rhand -10.7179 -31.4918
rfingers 7.12502
rthumb 15.2923 -60.9064
lclavicle -3.6154e-015 1.2921e-014
lhumerus -44.8514 -8.80539 90.4952
lradius 21.6215
lwrist -17.9481
lhand -8.42278 -23.3306
lfingers 7.12502
lthumb 17.502 5.90155
rfemur 2.57566 -5.73059 22.7098
rtibia 10.3717
rfoot -10.7929 3
rtoes 22.6452
lfemur 7.44295 5.02617 -12.4148
ltibia 57.121
lfoot 3.06115 3.36866
ltoes 8.93622
